<svg xmlns="http://www.w3.org/2000/svg" viewBox="0 0 1920.5 1108.75"><defs><style>.cls-1,.cls-7{fill:#fff;}.cls-13,.cls-15,.cls-17,.cls-18,.cls-19,.cls-2,.cls-20,.cls-21,.cls-22,.cls-23,.cls-24,.cls-25,.cls-26,.cls-27,.cls-28,.cls-29,.cls-3,.cls-30,.cls-31,.cls-32,.cls-33,.cls-34,.cls-5{fill:none;}.cls-13,.cls-15,.cls-16,.cls-17,.cls-18,.cls-19,.cls-2,.cls-20,.cls-21,.cls-22,.cls-23,.cls-24,.cls-25,.cls-26,.cls-27,.cls-28,.cls-29,.cls-3,.cls-30,.cls-32,.cls-33{stroke:#8bc53f;}.cls-15,.cls-16,.cls-17,.cls-18,.cls-19,.cls-2,.cls-20,.cls-21,.cls-22,.cls-23,.cls-24,.cls-25,.cls-26,.cls-27,.cls-28,.cls-29,.cls-30,.cls-31,.cls-32,.cls-33,.cls-5,.cls-6,.cls-7{stroke-miterlimit:10;}.cls-13,.cls-3{stroke-linecap:round;stroke-linejoin:round;stroke-width:4px;}.cls-3{stroke-dasharray:0.3 13;}.cls-4{font-size:10.37px;letter-spacing:0.2em;}.cls-11,.cls-14,.cls-4{fill:#8bc53f;}.cls-14,.cls-4{font-family:RobotoMono-Regular, Roboto Mono;}.cls-5,.cls-6,.cls-7{stroke:#7f3f97;}.cls-6,.cls-9{fill:#f1f1f2;}.cls-16,.cls-8{fill:#1c1c1c;}.cls-10{fill:#7f3f97;}.cls-12{fill:#2d2d2d;}.cls-13{stroke-dasharray:0.3 10;}.cls-14{font-size:8px;letter-spacing:0.2em;}.cls-15,.cls-16{stroke-dasharray:3;}.cls-17{stroke-dasharray:2.03 2.03;}.cls-18{stroke-dasharray:1.92 1.92;}.cls-19{stroke-dasharray:1.7 1.7;}.cls-20{stroke-dasharray:1.4 1.4;}.cls-21{stroke-dasharray:1.77 1.77;}.cls-22{stroke-dasharray:3.07 3.07;}.cls-23{stroke-dasharray:2.98 2.98;}.cls-24{stroke-dasharray:0.93 0.93;}.cls-25{stroke-dasharray:0.62 0.62;}.cls-26{stroke-dasharray:1.01 1.01;}.cls-27{stroke-dasharray:1.04 1.04;}.cls-28{stroke-dasharray:0.61 0.61;}.cls-29{stroke-dasharray:1.04 1.04;}.cls-30{stroke-dasharray:2;}.cls-31{stroke:#8ac440;}.cls-32,.cls-33{stroke-width:0.5px;}.cls-32{stroke-dasharray:2 2;}</style></defs><title>sprite</title><g id="Layer_2" data-name="Layer 2"><g id="Layer_1-2" data-name="Layer 1"><path class="cls-1" d="M63.17,5.49V19.07A6.79,6.79,0,0,1,61.45,24,6.47,6.47,0,0,1,58,25.78v5.55a.25.25,0,0,1-.26.26H54.71a.25.25,0,0,1-.26-.26V25.79a6.23,6.23,0,0,1-3.34-1.62c-1-1-1.7-2.34-1.7-5.08V5.49a.26.26,0,0,1,.26-.26h3.11a.26.26,0,0,1,.26.26V18.94a4.2,4.2,0,0,0,.88,3,3,3,0,0,0,2.22.81h.25a3,3,0,0,0,2.26-.88A4.09,4.09,0,0,0,59.53,19V5.49a.27.27,0,0,1,.28-.26h3.11a.25.25,0,0,1,.25.26M.76,29.31h.68c3.07,0,5.2-.72,6.46-1.92a5.47,5.47,0,0,0,1.63-4.28V5.48c0-.16-.11-.25-.28-.25H1.92a.25.25,0,0,0-.26.26v3a.26.26,0,0,0,.26.26h4v13.1c0,1.89-.41,2.87-1.43,3.44A7.14,7.14,0,0,1,1,25.91H.76a.24.24,0,0,0-.26.26v2.88a.25.25,0,0,0,.26.26M23.43,13.74H16.74v-.87a5.11,5.11,0,0,1,.91-3.45,3,3,0,0,1,2.39-1h.07a3.19,3.19,0,0,1,2.4,1.05c.61.68.92,1.69.92,3.45ZM25.28,7a7.06,7.06,0,0,0-5.22-2.12A7,7,0,0,0,15,7c-1.26,1.36-1.9,3.18-1.9,6.42v4.71c0,3.16.65,5,1.94,6.3a6.47,6.47,0,0,0,4.81,1.82,7.11,7.11,0,0,0,6.69-4.3c.08-.18,0-.27-.13-.36L24,20.38c-.16-.08-.26,0-.35.13a4,4,0,0,1-3.59,2.36,3.18,3.18,0,0,1-2.28-.9,4.77,4.77,0,0,1-1-3.5V17.25h10A.23.23,0,0,0,27,17V13.18c0-3.27-.69-5-1.76-6.19M45.85,26.2h1a.25.25,0,0,0,.26-.26V23a.23.23,0,0,0-.26-.26h-.54a2.47,2.47,0,0,1-1.85-.59c-.47-.48-.63-1.17-.63-2.5V.9a.25.25,0,0,0-.26-.26H40.47a.25.25,0,0,0-.26.26V20.83c0,2.11.47,3.16,1.28,4a6.27,6.27,0,0,0,4.36,1.41m-9.51,0A6.27,6.27,0,0,1,32,24.79c-.82-.79-1.28-1.85-1.28-4V.9A.25.25,0,0,1,31,.64h3.11a.25.25,0,0,1,.26.26V19.65c0,1.32.16,2,.63,2.5a2.47,2.47,0,0,0,1.85.59h.54a.23.23,0,0,1,.26.26v2.94a.25.25,0,0,1-.26.26ZM105.86.91V22.34h-1.35a.26.26,0,0,0-.26.26v3a.26.26,0,0,0,.26.26h6.28a.26.26,0,0,0,.26-.26v-3a.26.26,0,0,0-.26-.26h-1.3V13a4.75,4.75,0,0,1,1-3.53,3.42,3.42,0,0,1,2.56-1,3,3,0,0,1,2.29.91c.62.69.9,1.78.9,3.56v9.45h-1.33a.26.26,0,0,0-.26.26v3a.26.26,0,0,0,.26.26h6.17a.26.26,0,0,0,.26-.26v-3a.26.26,0,0,0-.26-.26H119.9V11.91c0-2.56-.57-4.08-1.65-5.28A5.91,5.91,0,0,0,114,4.89a6.28,6.28,0,0,0-4.49,1.76V.91a.26.26,0,0,0-.26-.26h-3.1a.25.25,0,0,0-.27.26M76.46,9.31v3a.25.25,0,0,1-.28.28H71.42v9.76h1.41a.26.26,0,0,1,.26.26v3a.26.26,0,0,1-.26.26H66.68a.26.26,0,0,1-.26-.26v-3a.26.26,0,0,1,.26-.26h1.11V8.23c0-2.74.43-4.45,1.89-5.87A8,8,0,0,1,75.35.5h1.4c.19,0,.28.08.28.26v3c0,.16-.16.26-.34.26h-.8c-1.65,0-2.78.27-3.54,1.05a4.45,4.45,0,0,0-.94,3.31v.67h4.76c.2,0,.28.09.28.26m2.92,3.27h1.34v9.76H79.4a.26.26,0,0,0-.26.26v3a.26.26,0,0,0,.26.26h6.26a.26.26,0,0,0,.26-.26v-3a.26.26,0,0,0-.26-.26h-1.3v-13a.27.27,0,0,0-.27-.26h-4.7c-.2,0-.29.09-.29.26v3a.25.25,0,0,0,.28.28M80.54,2H84a.24.24,0,0,1,.26.26V5.9a.24.24,0,0,1-.26.26H80.54a.25.25,0,0,1-.26-.26V2.3A.25.25,0,0,1,80.54,2m16,12.07c4.14,1.65,5.6,2.77,5.6,5.76v.65c0,3.26-2.62,5.72-6.94,5.72-4.59,0-6.66-2.41-6.66-5.65v-.93a.29.29,0,0,1,.34-.32h2.78c.27,0,.4.1.4.3,0,2.23,1,3.43,3.3,3.43,1.93,0,3.07-1.09,3.07-2.52,0-1.83-.66-2.27-4.22-3.65-3.85-1.49-5.4-2.37-5.4-5.9v-.46c0-3.22,2.45-5.66,6.33-5.66,3.67,0,6.24,2,6.24,5.58V11c0,.2-.1.29-.27.29H98.37c-.34,0-.53-.11-.53-.39C97.85,9.09,97,8,95.14,8a2.41,2.41,0,0,0-2.69,2.43c0,2,.69,2.29,4.06,3.64"/><polyline class="cls-2" points="100.15 111.12 76.29 134.99 52.42 111.12"/><line class="cls-3" x1="76.29" y1="86.83" x2="76.29" y2="123.42"/><rect class="cls-2" x="0.5" y="41.6" width="151.57" height="30.65" rx="15.32" ry="15.32"/><text class="cls-4" transform="translate(14.05 61.12)">SCROLL FOR MORE</text><rect class="cls-5" x="0.5" y="144.99" width="59.3" height="59.3"/><path class="cls-6" d="M33.49,189.49a3.75,3.75,0,0,1-7.5,0"/><rect class="cls-5" x="22.71" y="181" width="14.06" height="2.8" rx="1.35" ry="1.35"/><rect class="cls-5" x="22.71" y="183.8" width="14.06" height="2.8" rx="1.35" ry="1.35"/><rect class="cls-5" x="22.71" y="186.6" width="14.06" height="2.8" rx="1.35" ry="1.35"/><path class="cls-5" d="M38.44,173.38c-2.1,3.81-2.64,4.43-2.64,7.61H23.68c0-3.18-.54-3.81-2.64-7.61a10.76,10.76,0,1,1,17.4,0Z"/><rect class="cls-5" x="69.8" y="144.99" width="59.3" height="59.3"/><rect class="cls-5" x="91.78" y="154.97" width="15.74" height="29.25" rx="7.87" ry="7.87"/><line class="cls-5" x1="99.65" y1="187.09" x2="99.65" y2="194.3"/><line class="cls-5" x1="88.48" y1="194.3" x2="110" y2="194.3"/><path class="cls-5" d="M88.89,169.58v7.47a10,10,0,0,0,10,10h1.44a10,10,0,0,0,10-10v-7.47"/><rect class="cls-5" x="139.09" y="144.99" width="59.3" height="59.3"/><path class="cls-5" d="M160.62,189.15,184.78,165a.66.66,0,0,0,0-.93l-5.43-5.43a.66.66,0,0,0-.93,0l-24.16,24.16-1.74,8.06Z"/><line class="cls-5" x1="175.82" y1="161.21" x2="182.18" y2="167.58"/><line class="cls-5" x1="174.76" y1="162.27" x2="181.12" y2="168.64"/><line class="cls-5" x1="179.08" y1="166.6" x2="158.58" y2="187.1"/><line class="cls-5" x1="176.87" y1="164.39" x2="156.37" y2="184.9"/><line class="cls-7" x1="153.09" y1="188.18" x2="155.19" y2="190.28"/><line class="cls-7" x1="154.25" y1="182.78" x2="160.62" y2="189.15"/><rect class="cls-2" x="0.5" y="214.28" width="193.2" height="193.2"/><rect class="cls-2" x="0.5" y="214.28" width="193.2" height="11.13"/><circle class="cls-2" cx="7.28" cy="219.85" r="1.76"/><circle class="cls-2" cx="20.38" cy="219.85" r="1.76"/><circle class="cls-2" cx="13.83" cy="219.85" r="1.76"/><rect class="cls-8" x="0.5" y="517.57" width="1920" height="151.29"/><rect class="cls-9" x="0.5" y="668.86" width="1920" height="85.78"/><polygon class="cls-10" points="716.68 669.76 950.08 719.25 1920.5 668.86 1920.5 517.57 716.68 669.76"/><polygon class="cls-11" points="716.68 669.76 0.5 754.65 0.5 517.57 716.68 669.76"/><rect class="cls-1" x="0.5" y="764.65" width="1918.01" height="96.74"/><polygon class="cls-9" points="0.5 764.65 1916.52 764.65 422.68 861.39 0.5 764.65"/><rect class="cls-1" x="0.5" y="871.39" width="1920" height="125.63"/><polygon class="cls-9" points="2.49 997.02 1372.55 871.39 1920.5 997.02 2.49 997.02"/><rect class="cls-9" x="0.5" y="1007.02" width="1920" height="101.72"/><polygon class="cls-12" points="0.5 1033.56 544.41 1068.94 1920.5 1007.02 1920.5 1108.75 0.5 1108.75 0.5 1033.56"/><rect class="cls-2" x="0.5" y="417.48" width="48.27" height="37.89"/><rect class="cls-2" x="0.5" y="417.48" width="48.27" height="6.06"/><rect class="cls-2" x="15.01" y="436.42" width="14.28" height="7.39"/><polygon class="cls-2" points="29.72 440.12 36.28 443.91 36.28 436.33 29.72 440.12"/><circle class="cls-11" cx="4.05" cy="420.51" r="1.09"/><circle class="cls-11" cx="7.89" cy="420.51" r="1.09"/><circle class="cls-11" cx="11.74" cy="420.51" r="1.09"/><line class="cls-2" x1="24.63" y1="455.37" x2="16.55" y2="469.8"/><line class="cls-2" x1="24.63" y1="455.37" x2="32.72" y2="469.8"/><polyline class="cls-2" points="139.14 473.21 121.25 491.11 103.36 473.21"/><line class="cls-13" x1="121.25" y1="458.5" x2="121.25" y2="488.91"/><path class="cls-11" d="M163.83,417.48a16.75,16.75,0,0,1,16.75,16.75h0A16.75,16.75,0,0,1,163.83,451H75.52a16.75,16.75,0,0,1-16.75-16.75h0a16.75,16.75,0,0,1,16.75-16.75h88.3m0-1H75.52a17.75,17.75,0,0,0,0,35.51h88.3a17.75,17.75,0,1,0,0-35.51Z"/><path class="cls-11" d="M163.73,423.46a10.77,10.77,0,0,1,10.77,10.77h0A10.77,10.77,0,0,1,163.73,445H75.62a10.77,10.77,0,0,1-10.77-10.77h0a10.77,10.77,0,0,1,10.77-10.77h88.11m0-1H75.62a11.77,11.77,0,1,0,0,23.54h88.11a11.77,11.77,0,1,0,0-23.54Z"/><text class="cls-14" transform="translate(72.8 437.62)">SCROLL FOR MORE</text><path class="cls-15" d="M557.35,43.49H506.84a8.88,8.88,0,0,0-5,1.52"/><path class="cls-15" d="M668.24,46.88H657.49A8.92,8.92,0,0,1,648.57,38v-.43a8.92,8.92,0,0,1,8.92-8.92h6.91a8.92,8.92,0,0,0,8.92-8.92v-.43a8.92,8.92,0,0,0-8.92-8.92h-75.3a8.92,8.92,0,0,0-8.92,8.92v.43a8.92,8.92,0,0,1-8.92,8.92h-6.91a8.92,8.92,0,0,0-8.92,8.92V38a8.92,8.92,0,0,0,8.92,8.92h0a8.92,8.92,0,0,1,8.92,8.92v.43a8.92,8.92,0,0,1-8.92,8.92"/><line class="cls-16" x1="761.29" y1="44.07" x2="731.61" y2="44.07"/><path class="cls-15" d="M884.51,39.38h9.71a8.92,8.92,0,0,0,8.92-8.92V30a8.92,8.92,0,0,0-8.92-8.92H869.78a8.92,8.92,0,0,1-8.92-8.92V9.42A8.92,8.92,0,0,0,851.93.5H776.82a8.92,8.92,0,0,0-8.92,8.92v2.76a8.92,8.92,0,0,0,8.92,8.92h24.26A8.92,8.92,0,0,1,810,30v.43a8.92,8.92,0,0,1-8.92,8.92H769.14a8.92,8.92,0,0,0-8.92,8.92v.43a8.92,8.92,0,0,0,8.92,8.92H781.8a8.92,8.92,0,0,1,8.74,7.12"/><path class="cls-15" d="M446.39,421.62a9.1,9.1,0,0,0,1.69-5.29h0a9.14,9.14,0,0,0-9.14-9.14h-31.5a9.14,9.14,0,0,1-9.14-9.14h0a9.14,9.14,0,0,1,9.14-9.14h3.72"/><path class="cls-15" d="M440.91,388.92h41.4a9.14,9.14,0,0,1,9.14,9.14h0a9.14,9.14,0,0,0,9.14,9.14h31.5a9.14,9.14,0,0,1,9.14,9.14h0a9.14,9.14,0,0,1-9.14,9.14H519.86a9.14,9.14,0,0,0-9.14,9.14h0a9.14,9.14,0,0,0,9.14,9.14h6.47a9.14,9.14,0,0,1,9.14,9.14h0a9.14,9.14,0,0,1-9.14,9.14H485.08"/><line class="cls-15" x1="388.58" y1="94.96" x2="360.72" y2="94.96"/><path class="cls-15" d="M314.72,125.13a9.14,9.14,0,0,0,8.71,6.38h12.22a9.14,9.14,0,0,1,9.14,9.14h0a9.14,9.14,0,0,1-9.14,9.14h-31.5a9.14,9.14,0,0,0-9.14,9.14h0a9.14,9.14,0,0,0,9.14,9.14H379a9.14,9.14,0,0,0,9.14-9.14h0a9.16,9.16,0,0,1,.26-2.17"/><path class="cls-15" d="M634.39,347.22a9.15,9.15,0,0,1,.32,2.41h0a9.14,9.14,0,0,1-9.14,9.14H613.35a9.14,9.14,0,0,0-9.14,9.14h0a9.14,9.14,0,0,0,9.14,9.14h31.5a9.14,9.14,0,0,1,9.14,9.14h0a9.14,9.14,0,0,1-9.14,9.14H570a9.14,9.14,0,0,1-9.14-9.14h0a9.14,9.14,0,0,0-9.14-9.14H537.35"/><path class="cls-15" d="M1055.76,309a9.14,9.14,0,0,0-9-7.56h-35.33"/><path class="cls-15" d="M1033.74,322.48a9.11,9.11,0,0,1,6.55-2.76h6.47a9.14,9.14,0,0,0,9-7.67"/><path class="cls-15" d="M1001.92,374.54h.81a9.14,9.14,0,0,0,9.14-9.14h0a9.14,9.14,0,0,1,9.14-9.14h31.5a9.14,9.14,0,0,0,9.14-9.14h0a9.14,9.14,0,0,0-9.14-9.14h-12.22a9.14,9.14,0,0,1-9.14-9.14h0a9.11,9.11,0,0,1,.67-3.45"/><line class="cls-15" x1="982.85" y1="374.54" x2="995.75" y2="374.54"/><path class="cls-15" d="M889.57,356.26h20a9.14,9.14,0,0,1,9.14,9.14h0a9.14,9.14,0,0,0,9.14,9.14h1.92"/><path class="cls-15" d="M875.61,347.12a9.11,9.11,0,0,0,.72,3.56"/><line class="cls-16" x1="1036.7" y1="166.27" x2="1011.42" y2="166.27"/><path class="cls-15" d="M1011.43,241.77h39.12a9.3,9.3,0,0,0,9.3-9.3v-.36a9.3,9.3,0,0,0-9.3-9.3H1044a9.3,9.3,0,0,1-9.3-9.3h0a9.3,9.3,0,0,1,9.3-9.3h24a9.3,9.3,0,0,0,9.3-9.3v-.36a9.27,9.27,0,0,0-.73-3.62"/><polyline class="cls-2" points="283.42 125.14 283.42 77.64 300.51 77.64"/><line class="cls-2" x1="341.25" y1="82.61" x2="350.31" y2="82.61"/><path class="cls-2" d="M962.73,15.94c0-.32,0-.64,0-1l2.56-2.31a14.25,14.25,0,0,0-1.78-4.3L960,8.55a11.51,11.51,0,0,0-1.35-1.35l.18-3.45A14.25,14.25,0,0,0,954.55,2l-2.31,2.56c-.31,0-.63,0-1,0s-.64,0-1,0L948,2a14.25,14.25,0,0,0-4.3,1.78l.18,3.45a11.51,11.51,0,0,0-1.35,1.35l-3.45-.18a14.25,14.25,0,0,0-1.78,4.3L939.89,15c0,.31,0,.63,0,1s0,.64,0,1l-2.56,2.31a14.25,14.25,0,0,0,1.78,4.3l3.45-.18a11.51,11.51,0,0,0,1.35,1.35l-.18,3.45A14.25,14.25,0,0,0,948,29.9l2.31-2.56c.31,0,.63,0,1,0s.64,0,1,0l2.31,2.56a14.25,14.25,0,0,0,4.3-1.78l-.18-3.45A11.51,11.51,0,0,0,960,23.32l3.45.18a14.25,14.25,0,0,0,1.78-4.3l-2.56-2.31C962.7,16.58,962.73,16.26,962.73,15.94Z"/><circle class="cls-2" cx="951.28" cy="15.94" r="6.58"/><path class="cls-2" d="M884,64.86a17.08,17.08,0,0,0,2-2l5.11.26a21.14,21.14,0,0,0,2.64-6.37L890,53.31c0-.47.07-.94.07-1.41s0-.95-.07-1.41l3.8-3.43a21.14,21.14,0,0,0-2.64-6.37l-5.11.26a17.08,17.08,0,0,0-2-2l.26-5.11a21.14,21.14,0,0,0-6.37-2.64L874.48,35c-.47,0-.94-.07-1.41-.07s-.95,0-1.41.07l-3.43-3.8a21.14,21.14,0,0,0-6.37,2.64l.26,5.11a17.08,17.08,0,0,0-2,2L855,40.68a21.14,21.14,0,0,0-2.64,6.37l3.8,3.43c0,.47-.07.94-.07,1.41s0,.95.07,1.41l-3.8,3.43A21.14,21.14,0,0,0,855,63.12l5.11-.26a17.08,17.08,0,0,0,2,2"/><circle class="cls-2" cx="873.07" cy="51.9" r="9.77"/><path class="cls-2" d="M468.29,347.21q0,.5-.1,1"/><path class="cls-17" d="M467.83,350.21a17.6,17.6,0,0,1-34.39-1"/><path class="cls-2" d="M433.28,348.21q-.06-.49-.1-1"/><path class="cls-2" d="M464.91,347.22q0,.5-.12,1"/><path class="cls-18" d="M464.36,350.08a14.23,14.23,0,0,1-27.5-.94"/><path class="cls-2" d="M436.69,348.21q-.08-.49-.12-1"/><path class="cls-2" d="M454.56,347.21l.13.24a2.86,2.86,0,0,1,.22.69"/><path class="cls-19" d="M454.87,349.84a3,3,0,0,1-.81,1.42,3.33,3.33,0,0,1-.71.54"/><path class="cls-2" d="M452.56,352.13a5.12,5.12,0,0,1-1,.19V354h-1.34v-1.7a6,6,0,0,1-1-.18"/><path class="cls-20" d="M448,351.55a3.45,3.45,0,0,1-.57-.49,3.5,3.5,0,0,1-.7-1.14"/><path class="cls-2" d="M446.52,349.24a5.23,5.23,0,0,1-.09-1h1"/><path class="cls-2" d="M448.27,348.24h1a2.83,2.83,0,0,0,.15,1"/><path class="cls-21" d="M450.77,350.2h.14a1.19,1.19,0,0,0,.9-.34,1.3,1.3,0,0,0,.33-.94,2.08,2.08,0,0,0-.06-.5"/><path class="cls-2" d="M451.61,347.7a3.64,3.64,0,0,0-.87-.49"/><line class="cls-2" x1="1095.22" y1="162.49" x2="1095.22" y2="160.37"/><line class="cls-2" x1="1095.22" y1="169.17" x2="1095.22" y2="165.39"/><polyline class="cls-2" points="1045.06 178.47 1045.06 190.9 1095.22 190.9 1095.22 171.58"/><path class="cls-2" d="M1086.86,163.29"/><line class="cls-2" x1="1057.6" y1="178.47" x2="1045.06" y2="190.9"/><line class="cls-2" x1="1095.22" y1="190.9" x2="1082.68" y2="178.48"/><path class="cls-2" d="M434,65A29.73,29.73,0,0,0,404.51,31.5,29.57,29.57,0,0,0,387,37.19"/><path class="cls-2" d="M374.85,62.95a29.71,29.71,0,0,0,15.4,24.34"/><path class="cls-2" d="M430.07,65a25.86,25.86,0,0,0-25.57-29.61,25.72,25.72,0,0,0-14.45,4.41"/><path class="cls-2" d="M378.74,59.26q-.07,1-.07,2a25.83,25.83,0,0,0,13.08,22.47"/><path class="cls-2" d="M492.74,358.84a1.54,1.54,0,0,0-.33-1,3.07,3.07,0,0,0-1.15-.72q-.83-.34-1.52-.68a5.29,5.29,0,0,1-1.2-.8,3.14,3.14,0,0,1-.77-1.05,3.51,3.51,0,0,1-.27-1.45,3.11,3.11,0,0,1,1-2.35,4.13,4.13,0,0,1,2.56-1.07V347.9h1.34v1.81a3.76,3.76,0,0,1,2.42,1.27,4,4,0,0,1,.88,2.64H492.8a2.3,2.3,0,0,0-.34-1.35,1.11,1.11,0,0,0-1-.47,1.09,1.09,0,0,0-.86.35,1.41,1.41,0,0,0-.31,1,1.36,1.36,0,0,0,.35,1,3.48,3.48,0,0,0,1.14.7q.78.33,1.48.69a5.66,5.66,0,0,1,1.2.81,3.33,3.33,0,0,1,.79,1.06,3.39,3.39,0,0,1,.29,1.46,3.17,3.17,0,0,1-.91,2.35,3.93,3.93,0,0,1-2.49,1.06v1.69h-1.34v-1.7A4.28,4.28,0,0,1,488,361a4,4,0,0,1-1-2.81h2.84a2.2,2.2,0,0,0,.43,1.46,1.5,1.5,0,0,0,1.21.5,1.19,1.19,0,0,0,.9-.34A1.3,1.3,0,0,0,492.74,358.84Z"/><path class="cls-11" d="M491.34,373a16.62,16.62,0,0,0,3.4-.35c-.05.35-.1.69-.13,1a17.6,17.6,0,0,1-3.27.32,18.12,18.12,0,0,1-18.1-18.1,17.9,17.9,0,0,1,2.24-8.7h1.15A17.08,17.08,0,0,0,491.34,373Z"/><path class="cls-11" d="M509.4,355.24c-.33.11-.66.24-1,.36a16.88,16.88,0,0,0-2.38-8.39h1.14A18,18,0,0,1,509.4,355.24Z"/><path class="cls-11" d="M491.34,369.63a13.61,13.61,0,0,0,4.25-.69c-.12.38-.22.76-.32,1.14a14.71,14.71,0,0,1-15.8-22.87h1.27a13.71,13.71,0,0,0,10.6,22.42Z"/><path class="cls-11" d="M506.06,355.91c0,.25,0,.5,0,.75-.35.19-.69.39-1,.59,0-.44.07-.89.07-1.34a13.63,13.63,0,0,0-3.12-8.7h1.27A14.67,14.67,0,0,1,506.06,355.91Z"/><path class="cls-2" d="M517.33,378.57a1.54,1.54,0,0,0-.33-1,3.07,3.07,0,0,0-1.15-.72q-.83-.34-1.52-.68a5.29,5.29,0,0,1-1.2-.8,3.14,3.14,0,0,1-.77-1.05,3.51,3.51,0,0,1-.27-1.45,3.11,3.11,0,0,1,1-2.35,4.13,4.13,0,0,1,2.56-1.07v-1.78h1.34v1.81a3.76,3.76,0,0,1,2.42,1.27,4,4,0,0,1,.88,2.64h-2.85a2.3,2.3,0,0,0-.34-1.35,1.11,1.11,0,0,0-1-.47,1.09,1.09,0,0,0-.86.35,1.41,1.41,0,0,0-.31,1,1.36,1.36,0,0,0,.35,1,3.48,3.48,0,0,0,1.14.7q.78.33,1.48.69a5.66,5.66,0,0,1,1.2.81,3.33,3.33,0,0,1,.79,1.06,3.39,3.39,0,0,1,.29,1.46,3.17,3.17,0,0,1-.91,2.35,3.93,3.93,0,0,1-2.49,1.06v1.69h-1.34V382a4.28,4.28,0,0,1-2.82-1.26,4,4,0,0,1-1-2.81h2.84a2.2,2.2,0,0,0,.43,1.46,1.5,1.5,0,0,0,1.21.5,1.19,1.19,0,0,0,.9-.34A1.3,1.3,0,0,0,517.33,378.57Z"/><circle class="cls-22" cx="426.04" cy="379.51" r="17.6"/><circle class="cls-23" cx="426.04" cy="379.51" r="14.22"/><path class="cls-2" d="M425.2,373.34l.5-.07v-.5"/><polyline class="cls-2" points="425.7 372 425.7 371.5 426.2 371.5"/><polyline class="cls-2" points="426.54 371.5 427.04 371.5 427.04 372"/><path class="cls-2" d="M427,372.81v.5l.49.1"/><path class="cls-24" d="M428.4,373.73a3.46,3.46,0,0,1,1.06.85,3.64,3.64,0,0,1,.79,1.68"/><path class="cls-2" d="M430.32,376.71q0,.24,0,.5h-.5"/><line class="cls-25" x1="429.22" y1="377.22" x2="428.3" y2="377.22"/><path class="cls-2" d="M428,377.22h-.5a3.67,3.67,0,0,0,0-.5"/><path class="cls-26" d="M427.09,375.78a1.11,1.11,0,0,0-.9-.39,1.09,1.09,0,0,0-.86.35,1.41,1.41,0,0,0-.31,1,1.36,1.36,0,0,0,.35,1,3.48,3.48,0,0,0,1.14.7q.78.33,1.48.69a5.66,5.66,0,0,1,1.2.81A3.33,3.33,0,0,1,430,381a3.39,3.39,0,0,1,.29,1.46,3.17,3.17,0,0,1-.91,2.35,3.53,3.53,0,0,1-1.5.87"/><path class="cls-2" d="M427.37,385.76l-.5.07v.5"/><polyline class="cls-2" points="426.87 387.02 426.87 387.52 426.37 387.52"/><polyline class="cls-2" points="426.03 387.52 425.53 387.52 425.53 387.02"/><path class="cls-2" d="M425.53,386.32v-.5l-.5-.07"/><path class="cls-27" d="M424,385.46a3.55,3.55,0,0,1-2.21-2.7"/><path class="cls-2" d="M421.75,382.26q0-.24,0-.5h.5"/><line class="cls-28" x1="422.85" y1="381.75" x2="423.76" y2="381.75"/><path class="cls-2" d="M424.07,381.75h.5a3.54,3.54,0,0,0,0,.5"/><path class="cls-29" d="M425,383.22a1.5,1.5,0,0,0,1.21.5,1.19,1.19,0,0,0,.9-.34,1.3,1.3,0,0,0,.33-.94,1.54,1.54,0,0,0-.33-1,3.07,3.07,0,0,0-1.15-.72q-.83-.34-1.52-.68a5.29,5.29,0,0,1-1.2-.8,3.14,3.14,0,0,1-.77-1.05,3.51,3.51,0,0,1-.27-1.45,3.11,3.11,0,0,1,1-2.35,3.61,3.61,0,0,1,1.08-.71"/><line class="cls-2" x1="1086.86" y1="162.49" x2="1086.86" y2="160.37"/><line class="cls-2" x1="1086.86" y1="169.17" x2="1086.86" y2="165.4"/><polyline class="cls-2" points="1086.86 157.76 1086.86 145.34 1036.7 145.34 1036.7 178.47 1086.86 178.47 1086.86 171.58"/><polyline class="cls-2" points="1086.86 145.34 1061.78 170.19 1036.7 145.34"/><line class="cls-2" x1="1053.42" y1="161.91" x2="1036.7" y2="178.47"/><line class="cls-2" x1="1086.86" y1="178.47" x2="1070.14" y2="161.91"/><polyline class="cls-2" points="1127.48 206.1 1085.67 206.1 1085.67 239.24 1135.84 239.24 1135.84 222.67"/><polyline class="cls-2" points="1127.48 214.38 1110.76 230.95 1085.67 206.1"/><line class="cls-2" x1="1102.4" y1="222.67" x2="1085.67" y2="239.24"/><line class="cls-2" x1="1135.84" y1="239.24" x2="1119.12" y2="222.67"/><rect class="cls-2" x="1127.48" y="189.53" width="50.16" height="33.13" transform="translate(2305.12 412.2) rotate(-180)"/><polyline class="cls-2" points="1177.64 189.53 1152.56 214.38 1127.48 189.53"/><line class="cls-2" x1="1144.2" y1="206.1" x2="1127.48" y2="222.67"/><line class="cls-2" x1="1177.64" y1="222.67" x2="1160.92" y2="206.1"/><line class="cls-2" x1="1109.46" y1="162.49" x2="1083.69" y2="162.49"/><line class="cls-2" x1="1101.07" y1="169.17" x2="1081.81" y2="169.17"/><polygon class="cls-11" points="1090.38 160.37 1087.79 162.07 1088.34 162.91 1092.19 160.37 1090.38 160.37"/><line class="cls-2" x1="1099.76" y1="157.77" x2="1078.63" y2="157.77"/><path class="cls-2" d="M412.29,450.77V422.84a1.22,1.22,0,0,1,1.22-1.22h70.35a1.22,1.22,0,0,1,1.22,1.22v50.61a1.22,1.22,0,0,1-1.22,1.22H454"/><line class="cls-2" x1="446.32" y1="474.67" x2="421.83" y2="474.67"/><polyline class="cls-2" points="417.87 467.36 417.87 424.18 479.5 424.18 479.5 472.1 453.99 472.1"/><line class="cls-2" x1="446.32" y1="472.1" x2="421.52" y2="472.1"/><circle class="cls-2" cx="482.28" cy="448.14" r="1.71"/><path class="cls-2" d="M421.83,486.44h-4.9a11.68,11.68,0,0,1-11.68-11.68V453.6a4.09,4.09,0,0,1,4.09-4.09h0a4.09,4.09,0,0,1,4.09,4.09v8.91a4.41,4.41,0,0,0,3,4.16h0a8.09,8.09,0,0,1,5.44,7.64v3.12"/><path class="cls-2" d="M421.83,486.44h4.9a11.68,11.68,0,0,0,11.68-11.68"/><line class="cls-2" x1="424.82" y1="446.81" x2="472.55" y2="446.81"/><line class="cls-2" x1="434.33" y1="450.87" x2="463.05" y2="450.87"/><line class="cls-2" x1="429.7" y1="442.05" x2="467.67" y2="442.05"/><line class="cls-2" x1="427.88" y1="436.82" x2="469.5" y2="436.82"/><rect class="cls-2" x="425.67" y="424.18" width="46.88" height="7.97"/><path class="cls-2" d="M446.32,466.39h-9.9a2.1,2.1,0,0,1-2.1-2.1v-4.54a2.1,2.1,0,0,1,2.1-2.1h24.52a2.1,2.1,0,0,1,2.1,2.1v4.54a2.1,2.1,0,0,1-2.1,2.1h-7"/><line class="cls-2" x1="462.96" y1="456.89" x2="462.96" y2="454.22"/><line class="cls-2" x1="464.22" y1="457.41" x2="466.11" y2="455.53"/><line class="cls-2" x1="464.75" y1="458.68" x2="467.41" y2="458.68"/><path class="cls-2" d="M477,479.34v13.58a14.66,14.66,0,0,1-14.66,14.66h0a16,16,0,0,1-16-16V464.47a4,4,0,0,1,3.89-4,3.84,3.84,0,0,1,3.78,3.83v15a3.83,3.83,0,0,1,7.66,0,3.83,3.83,0,0,1,7.67,0,3.83,3.83,0,1,1,7.66,0Z"/><path class="cls-11" d="M525.93,366.28a13.78,13.78,0,1,1-5.13-3.44q-.79-.72-1.51-1.51a14.76,14.76,0,1,0,8.6,5.77A21.25,21.25,0,0,1,525.93,366.28Z"/><path class="cls-11" d="M531.21,368a17.08,17.08,0,1,1-15.28-9.47c.43,0,.85,0,1.26.06-.22-.34-.43-.68-.63-1-.21,0-.42,0-.64,0a18.15,18.15,0,1,0,16.47,10.65C532,368.14,531.6,368.09,531.21,368Z"/><path class="cls-2" d="M552.76,347.22a17.6,17.6,0,0,1-35.19,0"/><path class="cls-2" d="M549.38,347.22a14.22,14.22,0,0,1-28.44,0"/><path class="cls-2" d="M538.15,347.22l.17.15a3.33,3.33,0,0,1,.79,1.06,3.39,3.39,0,0,1,.29,1.46,3.17,3.17,0,0,1-.91,2.35,3.93,3.93,0,0,1-2.49,1.06V355h-1.34v-1.7a4.28,4.28,0,0,1-2.82-1.26,4,4,0,0,1-1-2.81h2.84a2.2,2.2,0,0,0,.43,1.46,1.5,1.5,0,0,0,1.21.5,1.19,1.19,0,0,0,.9-.34,1.3,1.3,0,0,0,.33-.94,1.54,1.54,0,0,0-.33-1,3.07,3.07,0,0,0-1.15-.72q-.83-.34-1.52-.68l-.44-.24"/><polyline class="cls-2" points="923.31 64.98 923.31 55.97 937.32 38.64 902.08 38.64 916.09 55.97 916.09 64.98"/><circle class="cls-2" cx="911.09" cy="28.57" r="4.51"/><circle class="cls-2" cx="919.67" cy="13.96" r="1.98"/><circle class="cls-2" cx="930.62" cy="26.31" r="2.25"/><polyline class="cls-2" points="300.52 88.18 300.52 59.39 341.25 59.39 341.25 68.35"/><line class="cls-2" x1="341.25" y1="75.98" x2="341.25" y2="88.2"/><circle class="cls-2" cx="312.55" cy="69.65" r="3.21"/><path class="cls-2" d="M314.54,73.52l-2,3.45-2-3.45a4.56,4.56,0,0,0-2.57,4.1v4.57h9.14V77.62A4.56,4.56,0,0,0,314.54,73.52Z"/><line class="cls-2" x1="410.38" y1="66.94" x2="427.64" y2="49.68"/><line class="cls-2" x1="416.04" y1="38.08" x2="402.13" y2="51.98"/><path class="cls-2" d="M420.93,79.36"/><polyline class="cls-2" points="350.41 74.61 343.13 73.89 334.95 82.99 332.57 81.19 339.96 69.54 340.72 68.35 342.33 68.51 352.54 69.51"/><polyline class="cls-2" points="350.31 88.2 355.1 85.51 356.33 84.82 356.25 83.21 355.8 72.96"/><polyline class="cls-2" points="350.6 74.81 350.92 82.12 343.39 88.18"/><path class="cls-2" d="M355.37,66.83l-4.77,4.52a2.37,2.37,0,0,0-.09,3.36h0a2.37,2.37,0,0,0,3.36.09l4.77-4.52"/><path class="cls-2" d="M377.27,38.07l-.28.25L357.06,57.2a8.2,8.2,0,0,0-.31,11.6h0a8.2,8.2,0,0,0,11.6.31l14.23-13.48"/><path class="cls-2" d="M409.49,67.27A8.21,8.21,0,0,0,408,57.81L388.54,38.39a8.2,8.2,0,0,0-11.6,0h0a8.2,8.2,0,0,0,0,11.6l19.41,19.41a8.17,8.17,0,0,0,5,2.36"/><circle class="cls-2" cx="382.11" cy="43.77" r="2.37"/><circle class="cls-2" cx="402.13" cy="63.58" r="2.37"/><polyline class="cls-30" points="461.34 64.98 461.34 17.36 502.07 17.36 502.07 65.27"/><line class="cls-30" x1="467.24" y1="50.24" x2="488.63" y2="50.24"/><line class="cls-30" x1="467.24" y1="54.8" x2="496.17" y2="54.8"/><line class="cls-30" x1="467.24" y1="59.36" x2="491.44" y2="59.36"/><circle class="cls-30" cx="473.37" cy="27.62" r="3.21"/><path class="cls-30" d="M475.36,31.48l-2,3.45-2-3.45a4.56,4.56,0,0,0-2.57,4.1v4.57h9.14V35.59A4.56,4.56,0,0,0,475.36,31.48Z"/><polygon class="cls-2" points="351.2 125.14 283.42 125.14 295.09 88.18 362.86 88.18 351.2 125.14"/><path class="cls-15" d="M1066,75.73a9.14,9.14,0,0,0-8.82-6.76h-12.22a9.14,9.14,0,0,1-9.14-9.14h0a9.14,9.14,0,0,1,9.14-9.14h6.47a9.14,9.14,0,0,0,9.14-9.14h0a9.14,9.14,0,0,0-9.14-9.14H976.53a9.14,9.14,0,0,0-9.14,9.14h0a9.14,9.14,0,0,1-9.14,9.14h-6.47a9.14,9.14,0,0,0-9.14,9.14h0a9.1,9.1,0,0,0,1.56,5.11"/><path class="cls-15" d="M1065.41,82a9.09,9.09,0,0,0,.87-3.38"/><path class="cls-15" d="M1011.43,104.58a9.14,9.14,0,0,0,5.08-8.19h0a9.14,9.14,0,0,1,9.14-9.14h31.5A9.1,9.1,0,0,0,1063,85.1"/><rect class="cls-31" x="988.03" y="383.57" width="44.06" height="4.37" transform="translate(568.61 -601.23) rotate(45)"/><rect class="cls-31" x="1010.8" y="379.55" width="5.46" height="5.46" transform="translate(567.17 -604.71) rotate(45)"/><polyline class="cls-31" points="991.1 405.46 1022.22 405.46 1020.22 445.23 983.9 445.23 982.14 410.13"/><path class="cls-31" d="M992.56,414.38v23.88a2.47,2.47,0,0,1-2.47,2.47h0a2.47,2.47,0,0,1-2.47-2.47v-25.2a2.47,2.47,0,0,1,1.4-2.23"/><path class="cls-31" d="M1000.73,422.55v15.71a2.47,2.47,0,0,1-2.47,2.47h0a2.47,2.47,0,0,1-2.47-2.47V417.6"/><path class="cls-31" d="M996.75,411.11a2.46,2.46,0,0,1,1.51-.52h0a2.47,2.47,0,0,1,2.47,2.47v2"/><path class="cls-31" d="M1004,418.32v-5.25a2.47,2.47,0,0,1,2.47-2.47h0a2.47,2.47,0,0,1,2.47,2.47v25.2a2.47,2.47,0,0,1-2.47,2.47h0a2.47,2.47,0,0,1-2.47-2.47V422.64"/><rect class="cls-31" x="1012.13" y="410.59" width="4.95" height="30.15" rx="2.47" ry="2.47"/><polyline class="cls-31" points="973.81 382.94 982.85 382.94 982.85 358.76 946.25 358.76 946.25 364.81"/><line class="cls-31" x1="952.35" y1="364.81" x2="946.25" y2="358.76"/><line class="cls-31" x1="982.85" y1="358.76" x2="973.76" y2="367.77"/><line class="cls-31" x1="982.85" y1="382.94" x2="973.82" y2="373.99"/><polyline class="cls-31" points="966.39 367.83 966.39 364.81 929.79 364.81 929.79 388.98 937.21 388.98"/><line class="cls-31" x1="937.21" y1="372.16" x2="929.79" y2="364.81"/><line class="cls-31" x1="966.39" y1="364.81" x2="963.34" y2="367.83"/><line class="cls-31" x1="937.21" y1="381.63" x2="929.79" y2="388.98"/><polyline class="cls-31" points="973.81 383.94 973.81 367.83 937.21 367.83 937.21 392.01 965.9 392.01"/><polyline class="cls-31" points="960.97 380.55 955.51 385.96 937.21 367.83"/><line class="cls-31" x1="973.81" y1="367.83" x2="962.47" y2="379.06"/><line class="cls-31" x1="949.41" y1="379.92" x2="937.21" y2="392.01"/><polyline class="cls-31" points="988.95 403.31 1006.12 420.48 1002.39 424.21 985.22 407.04"/><polygon class="cls-31" points="959.84 377.93 976.25 416.03 997.94 394.33 959.84 377.93"/><path class="cls-15" d="M388.42,245.22h-6.94a9.48,9.48,0,0,1-9.48-9.48h0a9.48,9.48,0,0,1,9.48-9.48h6.94"/><rect class="cls-15" x="263.31" y="149.12" width="18.96" height="18.96" rx="9.48" ry="9.48"/><rect class="cls-15" x="369.18" y="388.92" width="18.96" height="18.96" rx="9.48" ry="9.48"/><path class="cls-15" d="M291,281.49h-4.63a9.07,9.07,0,0,1-9.07-9.07h0a9.07,9.07,0,0,1,9.07-9.07h18.53a9.07,9.07,0,0,0,9.07-9.07v-.83a9.07,9.07,0,0,1,9.07-9.07H350.6a9.07,9.07,0,0,0,9.07-9.07v-.83a9.07,9.07,0,0,0-9.07-9.07H324.06a9.07,9.07,0,0,1-9.07-9.07h0a9.07,9.07,0,0,0-9.07-9.07h-74.6a9.07,9.07,0,0,0-9.07,9.07v.83a9.07,9.07,0,0,0,9.07,9.07h36.74a9.07,9.07,0,0,1,9.07,9.07h0a9.07,9.07,0,0,1-9.07,9.07h-12.8a9.07,9.07,0,0,0-9.07,9.07h0a9.07,9.07,0,0,1-9.07,9.07H217.46a9.07,9.07,0,0,0-9.07,9.07v.83a9.07,9.07,0,0,0,9.07,9.07h6.25a9.07,9.07,0,0,1,9.07,9.07v.83a9.07,9.07,0,0,0,9.07,9.07H291"/><line class="cls-2" x1="1034.89" y1="308.99" x2="1112.69" y2="308.99"/><line class="cls-2" x1="1020.8" y1="322.48" x2="1063.22" y2="322.48"/><line class="cls-2" x1="1121.81" y1="75.73" x2="1132.61" y2="75.73"/><line class="cls-2" x1="1137.31" y1="75.73" x2="1142.71" y2="75.73"/><line class="cls-2" x1="1040.18" y1="75.73" x2="1114.74" y2="75.73"/><line class="cls-2" x1="1046.55" y1="82.03" x2="1093.73" y2="82.03"/><path class="cls-15" d="M768.36,347.22a8.91,8.91,0,0,0,7.22,3.67h0a8.92,8.92,0,0,1,8.92,8.92v.43a8.92,8.92,0,0,1-8.92,8.92H756.3a8.92,8.92,0,0,0-8.92,8.92v.43a8.92,8.92,0,0,0,8.92,8.92h24.45a8.92,8.92,0,0,1,8.92,8.92v2.76a8.92,8.92,0,0,0,8.92,8.92H873.7a8.92,8.92,0,0,0,8.92-8.92v-2.76a8.92,8.92,0,0,0-8.92-8.92H849.45a8.92,8.92,0,0,1-8.92-8.92v-.43a8.92,8.92,0,0,1,8.92-8.92h31.94a8.92,8.92,0,0,0,8.92-8.92v-.43a8.92,8.92,0,0,0-8.92-8.92H868.72a8.91,8.91,0,0,1-7.28-3.77"/><path class="cls-2" d="M367.71,280.91v38.69a4.11,4.11,0,0,1-4.11,4.11H295.12a4.11,4.11,0,0,1-4.11-4.11V277a4.11,4.11,0,0,1,4.11-4.11h56.59"/><path class="cls-2" d="M366.84,323.7h-75a1.51,1.51,0,0,0-1.32.88L284.74,336c-.63,1.24.11,2.83,1.32,2.83h86.61c1.21,0,1.95-1.59,1.32-2.83l-5.82-11.4A1.51,1.51,0,0,0,366.84,323.7Z"/><polyline class="cls-2" points="365.39 281.57 365.39 321.03 293.33 321.03 293.33 275.55 351.49 275.55"/><line class="cls-2" x1="284.51" y1="336.89" x2="374.21" y2="336.89"/><path class="cls-2" d="M332.66,336.89h0c0,.6-.86,1.08-1.93,1.08H328c-1.06,0-1.93-.49-1.93-1.08h0"/><circle class="cls-2" cx="304.36" cy="308.77" r="6.03"/><circle class="cls-2" cx="304.36" cy="308.77" r="3.72"/><line class="cls-2" x1="304.36" y1="302.73" x2="304.36" y2="305.04"/><line class="cls-2" x1="307.31" y1="306.5" x2="308.93" y2="304.88"/><polyline class="cls-2" points="315.77 303.17 315.77 314.37 330.11 314.37"/><rect class="cls-2" x="315.77" y="304.32" width="11.5" height="1.8"/><rect class="cls-2" x="315.77" y="307.87" width="7.6" height="1.8"/><rect class="cls-2" x="315.77" y="311.12" width="10.14" height="1.8"/><line class="cls-2" x1="335.49" y1="303.09" x2="357.08" y2="303.09"/><line class="cls-2" x1="335.49" y1="306.02" x2="361.34" y2="306.02"/><line class="cls-2" x1="335.49" y1="308.95" x2="355.11" y2="308.95"/><line class="cls-2" x1="335.49" y1="311.87" x2="360.65" y2="311.87"/><line class="cls-2" x1="335.49" y1="314.8" x2="357.08" y2="314.8"/><polyline class="cls-2" points="301.6 284.74 310.92 290.6 320.25 286.63 329.58 280.91 338.91 287.7 348.23 286.73 357.56 290.6"/><circle class="cls-11" cx="357.56" cy="290.6" r="1.44"/><circle class="cls-11" cx="348.23" cy="286.73" r="1.44"/><circle class="cls-11" cx="338.91" cy="287.7" r="1.44"/><circle class="cls-11" cx="329.58" cy="280.91" r="1.44"/><circle class="cls-11" cx="320.25" cy="286.63" r="1.44"/><circle class="cls-11" cx="310.92" cy="290.6" r="1.44"/><circle class="cls-11" cx="301.59" cy="284.74" r="1.44"/><polyline class="cls-2" points="298.32 280.22 298.32 297.38 360.4 297.38"/><path class="cls-2" d="M364.38,268h-6.09a6.84,6.84,0,0,0-1,13.61v2.79l2.44-2.71h4.65a6.84,6.84,0,1,0,0-13.69Z"/><path class="cls-11" d="M360.65,277.46a.66.66,0,0,1,.18-.47.67.67,0,0,1,.51-.19.67.67,0,0,1,.51.19.65.65,0,0,1,.18.47.63.63,0,0,1-.18.46.68.68,0,0,1-.51.18.68.68,0,0,1-.51-.18A.63.63,0,0,1,360.65,277.46Zm1.23-1.82h-1.1l0-4.69h1.18Z"/><path class="cls-2" d="M731.61,65H978.23a33.2,33.2,0,0,1,33.2,33.2V314a33.2,33.2,0,0,1-33.2,33.2H421.62a33.2,33.2,0,0,1-33.2-33.2V98.18A33.2,33.2,0,0,1,421.62,65H668.24"/><rect class="cls-2" x="675.79" y="44.64" width="48.27" height="37.89"/><rect class="cls-2" x="675.79" y="44.64" width="48.27" height="6.06"/><rect class="cls-2" x="690.3" y="63.58" width="14.28" height="7.39"/><polygon class="cls-2" points="705.01 67.28 711.57 71.06 711.57 63.49 705.01 67.28"/><circle class="cls-11" cx="679.34" cy="47.67" r="1.09"/><circle class="cls-11" cx="683.18" cy="47.67" r="1.09"/><circle class="cls-11" cx="687.03" cy="47.67" r="1.09"/><line class="cls-2" x1="699.93" y1="82.53" x2="691.84" y2="96.96"/><line class="cls-2" x1="699.93" y1="82.53" x2="708.01" y2="96.96"/><path class="cls-32" d="M1416.22,64.24a9.11,9.11,0,0,1-2.87-6.65h0a9.13,9.13,0,0,1,4.33-7.77"/><path class="cls-32" d="M1460.38,11.9h42.73a9.14,9.14,0,0,1,9.14,9.14h0a9.14,9.14,0,0,0,9.14,9.14h6.47a9.14,9.14,0,0,1,9.14,9.14h0a9.14,9.14,0,0,1-9.14,9.14h-12.22a9.14,9.14,0,0,0-9.14,9.14h0a9.11,9.11,0,0,0,2.87,6.65"/><path class="cls-32" d="M1363.41,27.39A14,14,0,0,0,1350,17.17h-81.18a14,14,0,0,0-13.95,13.95h0a14,14,0,0,1-13.95,13.95H1231A14,14,0,0,0,1217.07,59h0A14,14,0,0,0,1231,73h18.66a14,14,0,0,1,13.95,13.95h0a14,14,0,0,1-13.95,13.95h-48.08a14,14,0,0,0-13.95,13.95h0a14,14,0,0,0,13.95,13.95h81.18a14,14,0,0,0,13.95-13.95h0a14,14,0,0,1,13.95-13.95H1327"/><polyline class="cls-33" points="1320.77 90.78 1320.77 44.98 1337.25 44.98"/><line class="cls-33" x1="1376.52" y1="49.78" x2="1385.26" y2="49.78"/><path class="cls-33" d="M1461.07,45.43A28.64,28.64,0,0,0,1420.65,6"/><path class="cls-33" d="M1408.92,30.82a28.66,28.66,0,0,0,39.83,24.68"/><path class="cls-33" d="M1456.36,45.43a24.91,24.91,0,0,0-32.85-36.9"/><path class="cls-33" d="M1412.67,27.26q-.07.93-.07,1.88a24.92,24.92,0,0,0,36.15,22.24"/><polygon class="cls-34" points="1441.09 23.92 1440.83 25.86 1442.41 28.14 1450.14 27.69 1452.95 24.89 1450.29 23.92 1441.09 23.92"/><line class="cls-33" x1="1376.52" y1="43.38" x2="1376.52" y2="55.15"/><polyline class="cls-33" points="1337.25 55.15 1337.25 27.39 1376.52 27.39 1376.52 36.08"/><circle class="cls-33" cx="1348.85" cy="37.28" r="3.09"/><path class="cls-33" d="M1350.77,41l-1.92,3.33L1346.92,41a4.4,4.4,0,0,0-2.48,4v4.4h8.81V45A4.4,4.4,0,0,0,1350.77,41Z"/><line class="cls-33" x1="1440.6" y1="37.23" x2="1459.81" y2="18.03"/><line class="cls-33" x1="1448.63" y1="6.84" x2="1435.22" y2="20.25"/><path class="cls-33" d="M1453.35,46.64"/><polyline class="cls-33" points="1385.36 42.06 1378.33 41.37 1370.45 50.15 1368.15 48.4 1375.28 37.17 1376.01 36.02 1377.56 36.18 1387.4 37.15"/><polyline class="cls-33" points="1385.54 42.25 1385.85 49.3 1378.59 55.15"/><polyline class="cls-33" points="1385.26 55.16 1389.87 52.57 1391.06 51.91 1390.99 50.35 1390.55 40.47"/><path class="cls-33" d="M1390.13,34.56l-4.6,4.36a2.29,2.29,0,0,0-.09,3.24h0a2.29,2.29,0,0,0,3.24.09l4.6-4.36"/><path class="cls-33" d="M1411,7.07l-19.22,18.2a7.91,7.91,0,0,0-.3,11.18h0a7.91,7.91,0,0,0,11.18.3l13.72-13"/><rect class="cls-33" x="1404.74" y="14.18" width="42.28" height="15.82" rx="7.91" ry="7.91" transform="translate(2418.51 1045.97) rotate(-135)"/><circle class="cls-33" cx="1415.92" cy="12.33" r="2.29"/><circle class="cls-33" cx="1435.22" cy="31.43" r="2.29"/><polyline class="cls-33" points="1327.03 90.78 1320.77 90.78 1332.01 55.15 1397.36 55.15 1394.49 64.24"/><path class="cls-32" d="M1621.92,139.81a14,14,0,0,0,.23-2.56h0a14,14,0,0,1,13.95-13.95h48.08a14,14,0,0,0,13.95-13.95h0a14,14,0,0,0-13.95-13.95h-18.66a14,14,0,0,1-13.95-13.95h0a14,14,0,0,1,13.95-13.95h9.88a14,14,0,0,0,13.95-13.95h0a14,14,0,0,0-13.95-13.95H1608"/><path class="cls-32" d="M1328.34,245.22h-9.52a14,14,0,0,1-13.95-13.95h0a14,14,0,0,0-13.95-13.95h-48.08a14,14,0,0,1-13.95-13.95h0a14,14,0,0,1,13.95-13.95h18.66a14,14,0,0,0,13.95-13.95h0a14,14,0,0,0-13.95-13.95h-9.88a14,14,0,0,1-13.95-13.95h0a14,14,0,0,1,13.95-13.95H1327"/><path class="cls-32" d="M1606.91,279.28h5a14,14,0,0,0,13.95-13.95h0a14,14,0,0,1,13.95-13.95h2a14,14,0,0,0,13.95-13.95h0a14,14,0,0,1,13.95-13.95h48.08a14,14,0,0,0,13.95-13.95h0a14,14,0,0,0-13.95-13.95h-18.66a14,14,0,0,1-13.95-13.95h0a14,14,0,0,1,13.95-13.95H1709A14,14,0,0,0,1723,153.76h0A14,14,0,0,0,1709,139.81h-92.51"/><path class="cls-32" d="M1353.44,347.4a14.09,14.09,0,0,1,.09,1.62h0A14,14,0,0,0,1367.48,363H1544.7A14,14,0,0,0,1558.64,349h0a14,14,0,0,1,13.95-13.95h48.08a14,14,0,0,0,13.95-13.95h0a14,14,0,0,0-13.95-13.95h-5"/><path class="cls-32" d="M1418,257a13.89,13.89,0,0,1,2.73,8.29h0a14,14,0,0,1-13.95,13.95h-9.88A14,14,0,0,0,1383,293.23h0a13.92,13.92,0,0,1-5.33,11"/><path class="cls-33" d="M1377.62,283.55v42.71a4.52,4.52,0,0,1-4.52,4.52h-75.35a4.52,4.52,0,0,1-4.52-4.52V279.39a4.52,4.52,0,0,1,4.52-4.52H1360"/><path class="cls-33" d="M1376.67,330.77h-82.49a1.66,1.66,0,0,0-1.45,1l-6.41,12.54c-.7,1.36.12,3.11,1.45,3.11h95.31c1.33,0,2.14-1.75,1.45-3.11l-6.41-12.54A1.66,1.66,0,0,0,1376.67,330.77Z"/><polyline class="cls-33" points="1375.07 284.41 1375.07 327.83 1295.78 327.83 1295.78 277.78 1359.73 277.78"/><line class="cls-33" x1="1286.07" y1="345.29" x2="1384.78" y2="345.29"/><path class="cls-33" d="M1339.05,345.29h0c0,.66-.95,1.19-2.12,1.19h-3c-1.17,0-2.12-.53-2.12-1.19h0"/><circle class="cls-33" cx="1307.91" cy="314.34" r="6.64"/><circle class="cls-33" cx="1307.91" cy="314.34" r="4.1"/><line class="cls-33" x1="1307.91" y1="307.7" x2="1307.91" y2="310.24"/><line class="cls-33" x1="1311.16" y1="311.85" x2="1312.95" y2="310.06"/><polyline class="cls-33" points="1320.47 308.18 1320.47 320.5 1336.25 320.5"/><rect class="cls-33" x="1320.47" y="309.45" width="12.66" height="1.98"/><rect class="cls-33" x="1320.47" y="313.35" width="8.36" height="1.98"/><rect class="cls-33" x="1320.47" y="316.93" width="11.16" height="1.98"/><line class="cls-33" x1="1342.17" y1="308.09" x2="1365.93" y2="308.09"/><line class="cls-33" x1="1342.17" y1="311.31" x2="1370.61" y2="311.31"/><line class="cls-33" x1="1342.17" y1="314.54" x2="1363.76" y2="314.54"/><line class="cls-33" x1="1342.17" y1="317.76" x2="1369.85" y2="317.76"/><line class="cls-33" x1="1342.17" y1="320.98" x2="1365.93" y2="320.98"/><polyline class="cls-33" points="1304.87 287.9 1315.14 294.35 1325.4 289.98 1335.66 283.68 1345.93 291.15 1356.19 290.08 1366.46 294.35"/><circle class="cls-11" cx="1366.46" cy="294.35" r="1.29"/><circle class="cls-11" cx="1356.19" cy="290.08" r="1.29"/><circle class="cls-11" cx="1345.93" cy="291.15" r="1.29"/><circle class="cls-11" cx="1335.67" cy="283.68" r="1.29"/><circle class="cls-11" cx="1325.4" cy="289.98" r="1.29"/><circle class="cls-11" cx="1315.14" cy="294.35" r="1.29"/><circle class="cls-11" cx="1304.87" cy="287.9" r="1.29"/><polyline class="cls-33" points="1301.27 282.93 1301.27 301.8 1369.58 301.8"/><path class="cls-33" d="M1374,269.43h-6.7a7.53,7.53,0,0,0-1.1,15v3.07l2.69-3H1374a7.53,7.53,0,1,0,0-15.06Z"/><path class="cls-11" d="M1369.85,279.88a.72.72,0,0,1,.2-.52.73.73,0,0,1,.56-.21.74.74,0,0,1,.56.21.71.71,0,0,1,.2.52.69.69,0,0,1-.2.51.75.75,0,0,1-.56.2.74.74,0,0,1-.56-.2A.7.7,0,0,1,1369.85,279.88Zm1.35-2H1370l0-5.16h1.3Z"/><path class="cls-33" d="M1540.19,46.47v-26a1.13,1.13,0,0,1,1.13-1.13h65.57a1.13,1.13,0,0,1,1.13,1.13V67.27"/><polyline class="cls-33" points="1545.39 61.93 1545.39 21.69 1602.83 21.69 1602.83 64.92"/><circle class="cls-33" cx="1605.43" cy="44.02" r="1.59"/><path class="cls-33" d="M1533.62,64.24V49.11a3.82,3.82,0,0,1,3.82-3.82h0a3.82,3.82,0,0,1,3.82,3.82v8.3a4.11,4.11,0,0,0,2.76,3.88h0a7.53,7.53,0,0,1,3.81,3"/><line class="cls-33" x1="1551.87" y1="42.78" x2="1596.35" y2="42.78"/><line class="cls-33" x1="1560.73" y1="46.56" x2="1587.49" y2="46.56"/><line class="cls-33" x1="1556.42" y1="38.35" x2="1591.8" y2="38.35"/><line class="cls-33" x1="1554.71" y1="33.47" x2="1593.51" y2="33.47"/><rect class="cls-33" x="1552.66" y="21.69" width="43.7" height="7.43"/><path class="cls-33" d="M1571.91,61h-9.23a2,2,0,0,1-2-2V54.84a2,2,0,0,1,2-2h22.86a2,2,0,0,1,2,2v4.23a2,2,0,0,1-2,2h-6.48"/><line class="cls-33" x1="1587.41" y1="52.17" x2="1587.41" y2="49.69"/><line class="cls-33" x1="1588.59" y1="52.66" x2="1590.35" y2="50.91"/><line class="cls-33" x1="1589.08" y1="53.84" x2="1591.56" y2="53.84"/><path class="cls-33" d="M1571.91,64.24v-5a3.68,3.68,0,0,1,3.62-3.7,3.58,3.58,0,0,1,3.52,3.57v5.12"/><line class="cls-33" x1="1615.69" y1="290.62" x2="1615.69" y2="288.39"/><line class="cls-33" x1="1615.69" y1="297.63" x2="1615.69" y2="293.67"/><polyline class="cls-33" points="1563.03 307.4 1563.03 320.44 1615.69 320.44 1615.69 300.16"/><path class="cls-33" d="M1606.91,291.46"/><line class="cls-33" x1="1576.19" y1="307.4" x2="1563.03" y2="320.45"/><line class="cls-33" x1="1615.69" y1="320.45" x2="1602.53" y2="307.4"/><line class="cls-33" x1="1606.91" y1="290.62" x2="1606.91" y2="288.39"/><line class="cls-33" x1="1606.91" y1="297.63" x2="1606.91" y2="293.67"/><polyline class="cls-33" points="1606.91 285.66 1606.91 272.61 1554.25 272.61 1554.25 307.4 1606.91 307.4 1606.91 300.16"/><polyline class="cls-33" points="1606.91 272.61 1580.58 298.7 1554.25 272.61"/><line class="cls-33" x1="1571.8" y1="290.01" x2="1554.25" y2="307.4"/><line class="cls-33" x1="1606.91" y1="307.4" x2="1589.36" y2="290.01"/><line class="cls-33" x1="1630.64" y1="290.62" x2="1603.58" y2="290.62"/><line class="cls-33" x1="1621.84" y1="297.63" x2="1601.61" y2="297.63"/><polygon class="cls-11" points="1611.66 288.39 1608.29 290.62 1609.13 290.62 1612.51 288.39 1611.66 288.39"/><line class="cls-33" x1="1620.45" y1="285.66" x2="1598.27" y2="285.66"/><path class="cls-2" d="M1494.81,64.24h103a18.71,18.71,0,0,1,18.71,18.71v155.4A18.71,18.71,0,0,1,1597.82,257H1345.74A18.71,18.71,0,0,1,1327,238.34V82.94a18.71,18.71,0,0,1,18.71-18.71h103"/><rect class="cls-2" x="1454.24" y="49.45" width="35.08" height="27.54"/><rect class="cls-2" x="1454.24" y="49.45" width="35.08" height="4.4"/><rect class="cls-2" x="1464.78" y="63.22" width="10.38" height="5.37"/><polygon class="cls-2" points="1475.47 65.9 1480.24 68.66 1480.24 63.15 1475.47 65.9"/><circle class="cls-11" cx="1456.81" cy="51.65" r="0.79"/><circle class="cls-11" cx="1459.61" cy="51.65" r="0.79"/><circle class="cls-11" cx="1462.4" cy="51.65" r="0.79"/><line class="cls-2" x1="1471.78" y1="76.99" x2="1465.9" y2="87.48"/><line class="cls-2" x1="1471.78" y1="76.99" x2="1477.65" y2="87.48"/></g></g></svg>